<svg xmlns="http://www.w3.org/2000/svg" xmlns:xlink="http://www.w3.org/1999/xlink" width="359.022" height="599.707" viewBox="0 0 359.022 599.707"><defs><clipPath id="a"><rect width="359.022" height="599.707" fill="#fff"/></clipPath></defs><g clip-path="url(#a)"><path d="M76.586.707q101.983-1.413,204,0c34.167-1.672,61.744,25.111,65.039,58.461l0,66.5c5.275,0,12.57,6.38,13.014,11.488,1.209,13.919-.853,29.749-.224,43.874-1.213,2.871-2.763,5.789-5.309,7.691-2.508,1.872-5.13,1.967-7.561,3.561l.006,348.884c-3.55,31.751-30.706,58.931-63.5,57.533l-1.458,1.006h-204C68.524,598.25,60.358,598,52.3,594.493c-21.668-9.436-36.03-29.836-38.753-53.247l.084-270.962c-2.429-1.6-5.056-1.686-7.56-3.562-2.222-1.664-5.3-5.746-5.534-8.466-1.237-14.239.876-30.427.221-44.877,2.492-5.827,6.233-9.39,12.8-9.706l0-11.929c-6.595-.756-10.637-4.433-12.979-10.523,1.4-14-1.844-31.45.026-45,.75-5.439,7.747-10.155,12.953-10.549l0-67.5C18.145,24.2,42.282,1.59,76.586.707m29,26c-15.166.764-31.188-2.575-45.278,4.222C49.288,36.245,42.4,47.183,40.549,59.17V540.244c2.571,17.838,16.477,31.126,34.5,32.5l210-.082c17.991-2.1,31.476-15.4,33.579-33.421l-.079-479c-1.532-12.039-8.1-23.283-19.015-28.985-13.978-7.3-30.707-3.729-45.943-4.557v16.5a54.289,54.289,0,0,1-2.13,5.87c-2.627,4.755-8.262,6.3-13.332,6.668-38.391,2.824-80.239-2.155-119-.08-4.64-1-10.78-2.572-12.36-7.64-.324-1.041-.165-2.385-.4-3.6-.116-.615-.786-1.005-.786-1.214Z" fill="#fff"/></g></svg>