<svg xmlns="http://www.w3.org/2000/svg" width="21.016" height="21.016" viewBox="0 0 21.016 21.016"><defs><style>.a{}</style></defs><path fill="currentColor"  class="a" d="M14.549,8.891a5.449,5.449,0,0,0-1.661-4,5.451,5.451,0,0,0-4-1.661,5.448,5.448,0,0,0-4,1.661,5.448,5.448,0,0,0-1.661,4,5.452,5.452,0,0,0,1.661,4,5.448,5.448,0,0,0,4,1.661,5.447,5.447,0,0,0,4-1.661A5.455,5.455,0,0,0,14.549,8.891ZM21.016,19.4A1.639,1.639,0,0,1,19.4,21.016a1.5,1.5,0,0,1-1.137-.48l-4.332-4.319a8.648,8.648,0,0,1-5.039,1.566,8.734,8.734,0,0,1-3.454-.7A8.705,8.705,0,0,1,.7,12.346a8.859,8.859,0,0,1,0-6.908A8.705,8.705,0,0,1,5.437.7a8.859,8.859,0,0,1,6.908,0,8.705,8.705,0,0,1,4.736,4.736,8.723,8.723,0,0,1,.7,3.454,8.647,8.647,0,0,1-1.566,5.039l4.332,4.332A1.547,1.547,0,0,1,21.016,19.4Z"/></svg>