<svg xmlns="http://www.w3.org/2000/svg" width="16.101" height="23" viewBox="0 0 16.101 23"><defs><style>.a{fill:#438830;}.b{fill:#fff;}</style></defs><g transform="translate(-1171.541 -793.926)"><path class="a" d="M22.8,26a2.3,2.3,0,0,0,2.3-2.3V5.3A2.3,2.3,0,0,0,22.8,3H11.3A2.3,2.3,0,0,0,9,5.3V23.7A2.3,2.3,0,0,0,11.3,26Zm-5.75-5.75A1.15,1.15,0,1,1,15.9,21.4,1.15,1.15,0,0,1,17.05,20.25Z" transform="translate(1162.541 790.926)"/><rect class="b" width="11.5" height="13.033" rx="1" transform="translate(1173.808 796.226)"/></g></svg>